<?xml version="1.0" encoding="utf-8"?>
<!-- Generator: Adobe Illustrator 22.1.0, SVG Export Plug-In . SVG Version: 6.00 Build 0)  -->
<svg version="1.1" id="Capa_1" xmlns="http://www.w3.org/2000/svg" xmlns:xlink="http://www.w3.org/1999/xlink" x="0px" y="0px"
	 viewBox="0 0 18 28" style="enable-background:new 0 0 18 28;" xml:space="preserve">
<style type="text/css">
	.st0{fill:#1D1D1B;}
</style>
<g>
	<g>
		<path class="st0" d="M12.6,9.8c2.4,0,4.4-2,4.4-4.5s-2-4.5-4.4-4.5s-4.4,2-4.4,4.5S10.1,9.8,12.6,9.8z M12.6,2.7
			c1.5,0,2.7,1.2,2.7,2.7s-1.2,2.7-2.7,2.7S9.9,6.9,9.9,5.4S11.1,2.7,12.6,2.7z"/>
		<path class="st0" d="M8.1,16.7H1v4.5c0,2.5,2,4.5,4.4,4.5h7.1c2.4,0,4.4-2,4.4-4.5V10.9H8.1V16.7z M2.7,21.1v-2.7h5.4v2.7
			c0,1.5-1.2,2.7-2.7,2.7S2.7,22.6,2.7,21.1z M9.9,12.6h5.4v8.5c0,1.5-1.2,2.7-2.7,2.7H8.9c0.6-0.8,0.9-1.7,0.9-2.7V12.6z"/>
	</g>
</g>
</svg>
